<svg id="visual" viewBox="0 0 900 600" width="900" height="600" xmlns="http://www.w3.org/2000/svg" xmlns:xlink="http://www.w3.org/1999/xlink" version="1.1"><g stroke-width="1" stroke-linejoin="bevel"><path d="M492 326L567 399L578 307Z" fill="#c4315d" stroke="#c4315d"></path><path d="M492 326L521 416L567 399Z" fill="#5e2e65" stroke="#5e2e65"></path><path d="M567 399L667 306L578 307Z" fill="#ee5634" stroke="#ee5634"></path><path d="M370 367L474 479L521 416Z" fill="#822e6a" stroke="#822e6a"></path><path d="M521 416L620 479L567 399Z" fill="#3c2b59" stroke="#3c2b59"></path><path d="M474 479L620 479L521 416Z" fill="#ee5634" stroke="#ee5634"></path><path d="M567 399L713 364L667 306Z" fill="#3c2b59" stroke="#3c2b59"></path><path d="M439 178L386 325L492 326Z" fill="#a52d67" stroke="#a52d67"></path><path d="M492 326L370 367L521 416Z" fill="#822e6a" stroke="#822e6a"></path><path d="M620 479L713 364L567 399Z" fill="#5e2e65" stroke="#5e2e65"></path><path d="M386 325L370 367L492 326Z" fill="#3c2b59" stroke="#3c2b59"></path><path d="M667 306L631 198L578 307Z" fill="#c4315d" stroke="#c4315d"></path><path d="M578 307L490 163L492 326Z" fill="#5e2e65" stroke="#5e2e65"></path><path d="M676 204L631 198L667 306Z" fill="#00101c" stroke="#00101c"></path><path d="M631 198L490 163L578 307Z" fill="#f5730a" stroke="#f5730a"></path><path d="M795 190L676 204L667 306Z" fill="#1f2547" stroke="#1f2547"></path><path d="M614 68L502 69L490 163Z" fill="#822e6a" stroke="#822e6a"></path><path d="M490 163L439 178L492 326Z" fill="#3c2b59" stroke="#3c2b59"></path><path d="M386 325L327 293L370 367Z" fill="#c4315d" stroke="#c4315d"></path><path d="M370 367L366 484L474 479Z" fill="#3c2b59" stroke="#3c2b59"></path><path d="M624 600L704 517L620 479Z" fill="#0b1c32" stroke="#0b1c32"></path><path d="M439 178L327 293L386 325Z" fill="#00101c" stroke="#00101c"></path><path d="M370 367L310 376L366 484Z" fill="#ee5634" stroke="#ee5634"></path><path d="M491 600L620 479L474 479Z" fill="#822e6a" stroke="#822e6a"></path><path d="M620 479L704 517L713 364Z" fill="#5e2e65" stroke="#5e2e65"></path><path d="M327 293L310 376L370 367Z" fill="#00101c" stroke="#00101c"></path><path d="M370 600L491 600L474 479Z" fill="#c4315d" stroke="#c4315d"></path><path d="M491 600L624 600L620 479Z" fill="#dd3f4c" stroke="#dd3f4c"></path><path d="M704 517L816 362L713 364Z" fill="#a52d67" stroke="#a52d67"></path><path d="M713 364L826 325L667 306Z" fill="#f5730a" stroke="#f5730a"></path><path d="M490 163L413 80L439 178Z" fill="#f5730a" stroke="#f5730a"></path><path d="M439 178L317 132L327 293Z" fill="#f5730a" stroke="#f5730a"></path><path d="M614 68L490 163L631 198Z" fill="#1f2547" stroke="#1f2547"></path><path d="M816 362L826 325L713 364Z" fill="#822e6a" stroke="#822e6a"></path><path d="M716 109L631 198L676 204Z" fill="#3c2b59" stroke="#3c2b59"></path><path d="M716 109L614 68L631 198Z" fill="#5e2e65" stroke="#5e2e65"></path><path d="M795 190L716 109L676 204Z" fill="#ee5634" stroke="#ee5634"></path><path d="M502 69L413 80L490 163Z" fill="#a52d67" stroke="#a52d67"></path><path d="M826 325L795 190L667 306Z" fill="#c4315d" stroke="#c4315d"></path><path d="M366 484L370 600L474 479Z" fill="#822e6a" stroke="#822e6a"></path><path d="M329 600L370 600L366 484Z" fill="#c4315d" stroke="#c4315d"></path><path d="M413 80L317 132L439 178Z" fill="#0b1c32" stroke="#0b1c32"></path><path d="M189 262L187 390L310 376Z" fill="#3c2b59" stroke="#3c2b59"></path><path d="M624 600L736 600L704 517Z" fill="#3c2b59" stroke="#3c2b59"></path><path d="M704 517L814 533L816 362Z" fill="#f5730a" stroke="#f5730a"></path><path d="M187 390L263 507L310 376Z" fill="#ee5634" stroke="#ee5634"></path><path d="M310 376L263 507L366 484Z" fill="#dd3f4c" stroke="#dd3f4c"></path><path d="M736 600L814 533L704 517Z" fill="#5e2e65" stroke="#5e2e65"></path><path d="M816 362L900 329L826 325Z" fill="#dd3f4c" stroke="#dd3f4c"></path><path d="M263 507L329 600L366 484Z" fill="#822e6a" stroke="#822e6a"></path><path d="M317 132L262 172L327 293Z" fill="#822e6a" stroke="#822e6a"></path><path d="M900 114L778 113L795 190Z" fill="#5e2e65" stroke="#5e2e65"></path><path d="M795 190L778 113L716 109Z" fill="#a52d67" stroke="#a52d67"></path><path d="M707 0L624 0L614 68Z" fill="#a52d67" stroke="#a52d67"></path><path d="M262 172L217 231L327 293Z" fill="#0b1c32" stroke="#0b1c32"></path><path d="M624 0L515 0L614 68Z" fill="#822e6a" stroke="#822e6a"></path><path d="M614 68L515 0L502 69Z" fill="#5e2e65" stroke="#5e2e65"></path><path d="M502 69L426 0L413 80Z" fill="#ee5634" stroke="#ee5634"></path><path d="M413 80L326 0L317 132Z" fill="#3c2b59" stroke="#3c2b59"></path><path d="M189 262L310 376L327 293Z" fill="#ee5634" stroke="#ee5634"></path><path d="M900 417L900 329L816 362Z" fill="#3c2b59" stroke="#3c2b59"></path><path d="M826 325L900 183L795 190Z" fill="#1f2547" stroke="#1f2547"></path><path d="M707 0L614 68L716 109Z" fill="#00101c" stroke="#00101c"></path><path d="M103 176L189 262L217 231Z" fill="#c4315d" stroke="#c4315d"></path><path d="M217 231L189 262L327 293Z" fill="#1f2547" stroke="#1f2547"></path><path d="M814 533L900 417L816 362Z" fill="#00101c" stroke="#00101c"></path><path d="M515 0L426 0L502 69Z" fill="#00101c" stroke="#00101c"></path><path d="M317 132L198 62L262 172Z" fill="#dd3f4c" stroke="#dd3f4c"></path><path d="M900 600L900 479L814 533Z" fill="#ee5634" stroke="#ee5634"></path><path d="M814 533L900 479L900 417Z" fill="#5e2e65" stroke="#5e2e65"></path><path d="M736 600L832 600L814 533Z" fill="#dd3f4c" stroke="#dd3f4c"></path><path d="M771 0L707 0L716 109Z" fill="#dd3f4c" stroke="#dd3f4c"></path><path d="M128 488L185 497L187 390Z" fill="#c4315d" stroke="#c4315d"></path><path d="M187 390L185 497L263 507Z" fill="#f5730a" stroke="#f5730a"></path><path d="M263 507L198 600L329 600Z" fill="#1f2547" stroke="#1f2547"></path><path d="M900 329L900 183L826 325Z" fill="#00101c" stroke="#00101c"></path><path d="M778 113L771 0L716 109Z" fill="#00101c" stroke="#00101c"></path><path d="M426 0L326 0L413 80Z" fill="#0b1c32" stroke="#0b1c32"></path><path d="M262 172L103 176L217 231Z" fill="#0b1c32" stroke="#0b1c32"></path><path d="M189 262L131 364L187 390Z" fill="#5e2e65" stroke="#5e2e65"></path><path d="M61 318L131 364L189 262Z" fill="#f5730a" stroke="#f5730a"></path><path d="M900 0L771 0L778 113Z" fill="#c4315d" stroke="#c4315d"></path><path d="M128 488L198 600L185 497Z" fill="#ee5634" stroke="#ee5634"></path><path d="M185 497L198 600L263 507Z" fill="#f5730a" stroke="#f5730a"></path><path d="M900 183L900 114L795 190Z" fill="#5e2e65" stroke="#5e2e65"></path><path d="M832 600L900 600L814 533Z" fill="#1f2547" stroke="#1f2547"></path><path d="M131 364L128 488L187 390Z" fill="#ee5634" stroke="#ee5634"></path><path d="M234 0L198 62L317 132Z" fill="#ee5634" stroke="#ee5634"></path><path d="M326 0L234 0L317 132Z" fill="#3c2b59" stroke="#3c2b59"></path><path d="M73 66L103 176L198 62Z" fill="#ee5634" stroke="#ee5634"></path><path d="M198 62L103 176L262 172Z" fill="#3c2b59" stroke="#3c2b59"></path><path d="M131 364L0 375L128 488Z" fill="#00101c" stroke="#00101c"></path><path d="M103 176L61 318L189 262Z" fill="#c4315d" stroke="#c4315d"></path><path d="M900 114L900 0L778 113Z" fill="#dd3f4c" stroke="#dd3f4c"></path><path d="M0 493L64 600L128 488Z" fill="#00101c" stroke="#00101c"></path><path d="M128 488L64 600L198 600Z" fill="#ee5634" stroke="#ee5634"></path><path d="M61 318L0 375L131 364Z" fill="#1f2547" stroke="#1f2547"></path><path d="M0 270L0 375L61 318Z" fill="#dd3f4c" stroke="#dd3f4c"></path><path d="M0 201L0 270L103 176Z" fill="#ee5634" stroke="#ee5634"></path><path d="M103 176L0 270L61 318Z" fill="#f5730a" stroke="#f5730a"></path><path d="M104 0L73 66L198 62Z" fill="#5e2e65" stroke="#5e2e65"></path><path d="M234 0L104 0L198 62Z" fill="#0b1c32" stroke="#0b1c32"></path><path d="M0 375L0 493L128 488Z" fill="#ee5634" stroke="#ee5634"></path><path d="M0 75L103 176L73 66Z" fill="#0b1c32" stroke="#0b1c32"></path><path d="M0 75L0 201L103 176Z" fill="#a52d67" stroke="#a52d67"></path><path d="M0 493L0 600L64 600Z" fill="#5e2e65" stroke="#5e2e65"></path><path d="M0 0L0 75L73 66Z" fill="#0b1c32" stroke="#0b1c32"></path><path d="M104 0L0 0L73 66Z" fill="#f5730a" stroke="#f5730a"></path></g></svg>